<!-- Generated by IcoMoon.io -->
<svg version="1.1" xmlns="http://www.w3.org/2000/svg" width="640" height="640" viewBox="0 0 640 640">
<title></title>
<g id="icomoon-ignore">
</g>
<path fill="#000" d="M326.496 17.952c-0.864-6.88-12.16-6.88-12.992 0-28.256 227.424-172.736 274.304-172.736 432.384 0 97.696 82.048 176.864 179.232 176.864 97.152 0 179.2-79.2 179.2-176.864 0-158.080-144.448-204.96-172.704-432.384zM299.2 269.376c-1.888 7.008-3.936 14.208-6.048 21.696-12.832 45.568-27.392 97.248-27.392 156.992 0 32.384-19.136 43.872-36.992 43.872-20.448 0-36.992-16.736-36.992-37.312 0-70.624 33.984-116.768 64-157.44 9.44-12.736 18.304-24.8 25.504-36.8 3.296-5.504 12.16-5.248 16.192 0.192 1.888 2.56 2.528 5.824 1.728 8.8z"></path>
</svg>
