<!-- Generated by IcoMoon.io -->
<svg version="1.1" xmlns="http://www.w3.org/2000/svg" width="480" height="448" viewBox="0 0 480 448">
<title></title>
<g id="icomoon-ignore">
</g>
<path fill="#000" d="M114.75 448c-25.75 0-48-17.5-54.25-42.5l-25.25-100.25c-2-8.75-3.25-18-3.25-27 0-5.75 0-11.25-1.25-16.75l-29-119.25c-1.25-4.75-1.75-9.5-1.75-14.25 0-31 23.5-56.5 54.25-59.75 5.5-28.25 29.75-48.25 58.75-48.25 27.75 0 51.75 19 58.25 46l20.75 87 25.75-107c6.5-27 30.5-46 58.25-46 29.75 0 54.25 21.5 59 50.5 30.75 3.5 53 29.5 53 60.25 0 4.75-0.75 9.75-1.75 14.75l-30.75 128c20-15 34.5-29.5 60.75-29.5 34.75 0 63.75 28.25 63.75 63.25 0 21-10.25 40.5-26.75 53l-126.75 95c-11 8.25-24.5 12.75-38.25 12.75h-173.5zM276 32c-12.75 0-24 9-27 21.5l-41 170.5h-31.75l-36.25-150.5c-3-12.5-14.25-21.5-27-21.5-16 0-28 12.75-28 28.25 0 2.5 0.25 4.75 0.75 7l33 136.75h-6.5l-24.75-102c-3-12.25-14.25-22-27.25-22-15.5 0-28.25 12.5-28.25 28 0 2.25 0.25 4.5 0.75 6.5l29 119.5c3.5 14.5 1 29 4.75 43.5l25 100.25c2.75 10.75 12.25 18.25 23.25 18.25h173.5c6.75 0 13.5-2.25 19-6.5l126.75-94.75c8.5-6.5 14-16.75 14-27.5 0-17.5-14.5-31.25-31.75-31.25-7 0-13.75 2.25-19.25 6.5l-76.75 57.5v-56.75c0-2 32.25-134.5 34.75-145.25 0.5-2.25 1-4.75 1-7.25 0-15.5-11.75-28.75-27.75-28.75-13 0-24.25 9-27.25 21.5l-29 120.5h-6.5l37.5-156c0.5-2.25 0.75-4.75 0.75-7 0-15.75-11.5-29-27.75-29z"></path>
</svg>
