<!-- Generated by IcoMoon.io -->
<svg version="1.1" xmlns="http://www.w3.org/2000/svg" width="1024" height="1024" viewBox="0 0 1024 1024">
<title></title>
<g id="icomoon-ignore">
</g>
<path fill="#000" d="M665.728 343.744c46.336-115.84-57.248-134.944-57.248-133.568 32.704-81.792-32.704-136.32-92.672-136.32s-57.248 27.296-57.248 27.296 32.704-6.816 32.704 19.072c0 25.92-30.016 24.544-59.968 54.528-30.016 29.984-15.68 25.92-17.728 25.92 62.336-4.096 98.816 60.32 167.648 36.768-68.16 34.080-84.512-20.096-158.112-22.816-9.536 0-64.064-10.56-64.064 93.696 79.744 9.216 114.496 64.064 222.176 51.808-121.312 44.96-273.28-141.088-294.4 62.688 0 43.616 32.672 65.536 32.672 65.536s377.568 0 376.224 0c74.944-32.704 38.176-151.424-29.984-144.608zM514.304 992l170.496-482.208h-344.736l174.24 482.208z"></path>
</svg>
